<?xml version="1.0" standalone="no"?>
<!DOCTYPE svg PUBLIC "-//W3C//DTD SVG 20010904//EN"
 "http://www.w3.org/TR/2001/REC-SVG-20010904/DTD/svg10.dtd">
<svg version="1.0" xmlns="http://www.w3.org/2000/svg"
 width="350.000000pt" height="350.000000pt" viewBox="0 0 350.000000 350.000000"
 preserveAspectRatio="xMidYMid meet">
<metadata>
Created by potrace 1.11, written by Peter Selinger 2001-2013
</metadata>
<g transform="translate(0.000000,350.000000) scale(0.100000,-0.100000)"
fill="#000000" stroke="none">
<path d="M1291 2895 c-262 -49 -480 -218 -596 -460 -63 -130 -79 -205 -79
-355 0 -149 17 -225 78 -355 144 -305 461 -493 796 -471 52 3 107 9 121 12 25
6 27 3 33 -40 37 -243 240 -465 477 -521 140 -33 314 -10 442 57 82 43 212
173 255 255 87 167 96 376 22 540 -31 69 -66 97 -132 108 -81 14 -177 -67
-178 -150 0 -17 9 -56 20 -88 25 -70 26 -156 3 -222 -24 -68 -111 -156 -177
-178 -98 -33 -220 -14 -300 47 -77 58 -134 200 -122 300 6 46 14 59 73 121
110 115 178 234 219 385 28 100 26 310 -4 414 -82 286 -302 507 -583 586 -98
27 -269 34 -368 15z m268 -320 c272 -65 440 -339 376 -614 -91 -383 -575 -521
-853 -243 -200 201 -202 522 -4 720 129 128 304 178 481 137z"/>
</g>
</svg>
