<svg width="82" height="117" viewBox="0 0 82 117" fill="none" xmlns="http://www.w3.org/2000/svg">
<path d="M70.3353 18.3698V22.9867H40.9143H11.4933V18.3698C9.38124 22.692 8.15332 27.6037 8.15332 32.761V82.6147C8.15332 94.6974 17.9767 104.521 30.0594 104.521H30.5015C31.1891 107.173 32.0241 109.04 32.0241 109.04C32.0241 109.04 33.6941 108.696 35.8552 107.91C38.2128 111.053 40.9634 113.264 40.9634 113.264C40.9634 113.264 43.714 111.004 46.0716 107.91C48.2327 108.696 49.9027 109.04 49.9027 109.04C49.9027 109.04 50.7377 107.124 51.4253 104.521H51.8674C63.9501 104.521 73.7735 94.6974 73.7735 82.6147V32.761C73.6752 27.6037 72.4473 22.692 70.3353 18.3698Z" fill="#FFB300"/>
<path d="M54.5689 9.33221H63.8028C57.9088 3.58553 49.8536 0 40.9144 0C32.0242 0 23.969 3.53642 18.0259 9.33221H27.2598C34.8239 9.33221 40.9144 15.4227 40.9144 22.9867C40.9144 15.4227 47.0049 9.33221 54.5689 9.33221Z" fill="#FFB300"/>
<path d="M44.2544 62.5258C43.5176 63.6063 42.2897 64.3431 40.9144 64.3431C39.49 64.3431 38.2621 63.6063 37.5745 62.5258H44.2544Z" fill="#C68400"/>
<path d="M38.9985 67.0447C38.2617 68.1252 37.0338 68.862 35.6585 68.862C34.2342 68.862 33.0062 68.1252 32.3186 67.0447H38.9985Z" fill="#C68400"/>
<path d="M49.51 67.0447C48.7732 68.1252 47.5453 68.862 46.17 68.862C44.7947 68.862 43.5177 68.1252 42.8301 67.0447H49.51Z" fill="#C68400"/>
<path d="M44.2544 72.8894C43.5176 73.97 42.2897 74.7067 40.9144 74.7067C39.49 74.7067 38.2621 73.97 37.5745 72.8894H44.2544Z" fill="#C68400"/>
<path d="M38.9985 77.4082C38.2617 78.4888 37.0338 79.2255 35.6585 79.2255C34.2342 79.2255 33.0062 78.4888 32.3186 77.4082H38.9985Z" fill="#C68400"/>
<path d="M49.51 77.4082C48.7732 78.4888 47.5453 79.2255 46.17 79.2255C44.7947 79.2255 43.5177 78.4888 42.8301 77.4082H49.51Z" fill="#C68400"/>
<path d="M44.2544 83.2533C43.5176 84.3339 42.2897 85.0706 40.9144 85.0706C39.49 85.0706 38.2621 84.3339 37.5745 83.2533H44.2544Z" fill="#C68400"/>
<path d="M38.9985 87.7719C38.2617 88.8524 37.0338 89.5892 35.6585 89.5892C34.2342 89.5892 33.0062 88.8524 32.3186 87.7719H38.9985Z" fill="#C68400"/>
<path d="M49.51 87.7719C48.7732 88.8524 47.5453 89.5892 46.17 89.5892C44.7947 89.5892 43.5177 88.8524 42.8301 87.7719H49.51Z" fill="#C68400"/>
<path d="M0 62.6731V116.8H0.884128C15.9139 116.8 28.0949 104.619 28.0949 89.5891V62.624C28.0949 54.8635 21.8079 48.5765 14.0475 48.5765C6.28698 48.6748 0 54.9126 0 62.6731Z" fill="#C68400"/>
<path d="M81.0919 62.6731V116.8H80.2078C65.1781 116.8 52.9971 104.619 52.9971 89.5891V62.624C52.9971 54.8635 59.284 48.5765 67.0445 48.5765C74.805 48.6748 81.0919 54.9126 81.0919 62.6731Z" fill="#C68400"/>
<path d="M55.3057 12.0829C48.4294 12.0829 42.6827 16.6999 40.8653 22.9868C39.0971 16.6999 33.3014 12.0829 26.425 12.0829H11.4443V26.818C11.4443 35.1187 18.0751 42.0933 26.3759 42.0933C28.8808 42.0933 31.2384 41.5039 33.3505 40.4233C38.1148 37.9675 43.665 37.9675 48.4294 40.4233C50.4923 41.5039 52.8499 42.0933 55.404 42.0933C63.7047 42.0442 70.3355 35.1187 70.3355 26.818V12.0829H55.3057Z" fill="#FFDBAB"/>
<path d="M26.4744 36.2481C31.5471 36.2481 35.6593 32.1359 35.6593 27.0633C35.6593 21.9906 31.5471 17.8784 26.4744 17.8784C21.4018 17.8784 17.2896 21.9906 17.2896 27.0633C17.2896 32.1359 21.4018 36.2481 26.4744 36.2481Z" fill="white"/>
<path d="M26.4741 31.3857C28.8613 31.3857 30.7964 29.4505 30.7964 27.0634C30.7964 24.6762 28.8613 22.7411 26.4741 22.7411C24.087 22.7411 22.1519 24.6762 22.1519 27.0634C22.1519 29.4505 24.087 31.3857 26.4741 31.3857Z" fill="#4D4D4D"/>
<path d="M55.3057 36.2481C60.3784 36.2481 64.4906 32.1359 64.4906 27.0633C64.4906 21.9906 60.3784 17.8784 55.3057 17.8784C50.2331 17.8784 46.1208 21.9906 46.1208 27.0633C46.1208 32.1359 50.2331 36.2481 55.3057 36.2481Z" fill="white"/>
<path d="M55.3054 31.3857C57.6926 31.3857 59.6277 29.4505 59.6277 27.0634C59.6277 24.6762 57.6926 22.7411 55.3054 22.7411C52.9183 22.7411 50.9832 24.6762 50.9832 27.0634C50.9832 29.4505 52.9183 31.3857 55.3054 31.3857Z" fill="#4D4D4D"/>
<path d="M40.9142 39.8339C37.5251 39.8339 35.6587 40.8653 35.6587 40.8653L40.9142 46.6611L46.1697 40.8653C46.1206 40.8653 44.3033 39.8339 40.9142 39.8339Z" fill="#FFE54C"/>
<path d="M11.4934 62.5258C10.7566 63.6063 9.52869 64.3431 8.15342 64.3431C6.77815 64.3431 5.50111 63.6063 4.81348 62.5258H11.4934Z" fill="#FBB03B"/>
<path d="M11.4934 71.0721C10.7566 72.1527 9.52869 72.8894 8.15342 72.8894C6.77815 72.8894 5.50111 72.1527 4.81348 71.0721H11.4934Z" fill="#FBB03B"/>
<path d="M22.1518 71.0721C21.4151 72.1527 20.1872 72.8894 18.8119 72.8894C17.3875 72.8894 16.1596 72.1527 15.4719 71.0721H22.1518Z" fill="#FBB03B"/>
<path d="M22.1518 79.6184C21.4151 80.699 20.1872 81.4357 18.8119 81.4357C17.3875 81.4357 16.1596 80.699 15.4719 79.6184H22.1518Z" fill="#FBB03B"/>
<path d="M22.1518 88.1648C21.4151 89.2454 20.1872 89.9821 18.8119 89.9821C17.3875 89.9821 16.1596 89.2454 15.4719 88.1648H22.1518Z" fill="#FBB03B"/>
<path d="M11.4934 79.6184C10.7566 80.699 9.52869 81.4357 8.15342 81.4357C6.77815 81.4357 5.50111 80.699 4.81348 79.6184H11.4934Z" fill="#FBB03B"/>
<path d="M11.4934 88.1648C10.7566 89.2454 9.52869 89.9821 8.15342 89.9821C6.77815 89.9821 5.50111 89.2454 4.81348 88.1648H11.4934Z" fill="#FBB03B"/>
<path d="M11.4934 96.7604C10.7566 97.8409 9.52869 98.5777 8.15342 98.5777C6.77815 98.5777 5.50111 97.8409 4.81348 96.7604H11.4934Z" fill="#FBB03B"/>
<path d="M22.1518 62.5258C21.4151 63.6063 20.1872 64.3431 18.8119 64.3431C17.3875 64.3431 16.1596 63.6063 15.4719 62.5258H22.1518Z" fill="#FBB03B"/>
<path d="M69.5986 62.5258C70.3354 63.6063 71.5633 64.3431 72.9386 64.3431C74.363 64.3431 75.5909 63.6063 76.2785 62.5258H69.5986Z" fill="#FBB03B"/>
<path d="M69.5986 71.0721C70.3354 72.1527 71.5633 72.8894 72.9386 72.8894C74.363 72.8894 75.5909 72.1527 76.2785 71.0721H69.5986Z" fill="#FBB03B"/>
<path d="M58.9893 71.0721C59.726 72.1527 60.9539 72.8894 62.3292 72.8894C63.7536 72.8894 64.9815 72.1527 65.6691 71.0721H58.9893Z" fill="#FBB03B"/>
<path d="M58.9893 79.6184C59.726 80.699 60.9539 81.4357 62.3292 81.4357C63.7536 81.4357 64.9815 80.699 65.6691 79.6184H58.9893Z" fill="#FBB03B"/>
<path d="M58.9893 88.1648C59.726 89.2454 60.9539 89.9821 62.3292 89.9821C63.7536 89.9821 64.9815 89.2454 65.6691 88.1648H58.9893Z" fill="#FBB03B"/>
<path d="M69.5986 79.6184C70.3354 80.699 71.5633 81.4357 72.9386 81.4357C74.363 81.4357 75.5909 80.699 76.2785 79.6184H69.5986Z" fill="#FBB03B"/>
<path d="M69.5986 88.1648C70.3354 89.2454 71.5633 89.9821 72.9386 89.9821C74.363 89.9821 75.5909 89.2454 76.2785 88.1648H69.5986Z" fill="#FBB03B"/>
<path d="M69.5986 96.7604C70.3354 97.8409 71.5633 98.5777 72.9386 98.5777C74.363 98.5777 75.5909 97.8409 76.2785 96.7604H69.5986Z" fill="#FBB03B"/>
</svg>
